<?xml version="1.0" encoding="UTF-8"?><svg xmlns="http://www.w3.org/2000/svg" xmlns:xlink="http://www.w3.org/1999/xlink" fill-opacity="1" color-rendering="auto" color-interpolation="auto" text-rendering="auto" stroke="black" stroke-linecap="square" width="430" stroke-miterlimit="10" shape-rendering="auto" stroke-opacity="1" fill="black" stroke-dasharray="none" font-weight="normal" stroke-width="1" height="399" font-family="'Dialog'" font-style="normal" stroke-linejoin="miter" font-size="12px" stroke-dashoffset="0" image-rendering="auto">
  <!--Generated by ySVG 2.5-->
  <defs id="genericDefs"/>
  <g>
    <defs id="defs1">
      <clipPath clipPathUnits="userSpaceOnUse" id="clipPath1">
        <path d="M0 0 L430 0 L430 399 L0 399 L0 0 Z"/>
      </clipPath>
      <clipPath clipPathUnits="userSpaceOnUse" id="clipPath2">
        <path d="M180 83 L610 83 L610 482 L180 482 L180 83 Z"/>
      </clipPath>
    </defs>
    <g fill="white" text-rendering="geometricPrecision" shape-rendering="geometricPrecision" transform="translate(-180,-83)" stroke="white">
      <rect x="180" width="430" height="399" y="83" clip-path="url(#clipPath2)" stroke="none"/>
    </g>
    <g fill="rgb(240,240,240)" text-rendering="geometricPrecision" shape-rendering="geometricPrecision" transform="matrix(1,0,0,1,-180,-83)" stroke="rgb(240,240,240)">
      <rect x="278.6384" width="151.6" height="38.8" y="98.304" clip-path="url(#clipPath2)" stroke="none"/>
    </g>
    <g text-rendering="geometricPrecision" stroke-miterlimit="1.45" shape-rendering="geometricPrecision" transform="matrix(1,0,0,1,-180,-83)" stroke-linecap="butt">
      <rect fill="none" x="278.6384" width="151.6" height="38.8" y="98.304" clip-path="url(#clipPath2)"/>
      <text x="299.3925" xml:space="preserve" y="114.8739" clip-path="url(#clipPath2)" font-family="sans-serif" stroke="none">MARTINI DNA/RNA</text>
      <text x="284.9433" xml:space="preserve" y="128.8427" clip-path="url(#clipPath2)" font-family="sans-serif" stroke="none">parameters &amp; topology</text>
    </g>
    <g fill="rgb(240,240,240)" text-rendering="geometricPrecision" shape-rendering="geometricPrecision" transform="matrix(1,0,0,1,-180,-83)" stroke="rgb(240,240,240)">
      <rect x="479.4384" width="83.6" height="38.8" y="98.304" clip-path="url(#clipPath2)" stroke="none"/>
    </g>
    <g text-rendering="geometricPrecision" stroke-miterlimit="1.45" shape-rendering="geometricPrecision" transform="matrix(1,0,0,1,-180,-83)" stroke-linecap="butt">
      <rect fill="none" x="479.4384" width="83.6" height="38.8" y="98.304" clip-path="url(#clipPath2)"/>
      <text x="508.7521" xml:space="preserve" y="114.8739" clip-path="url(#clipPath2)" font-family="sans-serif" stroke="none">CNS</text>
      <text x="490.0695" xml:space="preserve" y="128.8427" clip-path="url(#clipPath2)" font-family="sans-serif" stroke="none">file format</text>
    </g>
    <g fill="rgb(240,240,240)" text-rendering="geometricPrecision" shape-rendering="geometricPrecision" transform="matrix(1,0,0,1,-180,-83)" stroke="rgb(240,240,240)">
      <rect x="375.2384" width="164" height="38.8" y="167.104" clip-path="url(#clipPath2)" stroke="none"/>
    </g>
    <g text-rendering="geometricPrecision" stroke-miterlimit="1.45" shape-rendering="geometricPrecision" transform="matrix(1,0,0,1,-180,-83)" stroke-linecap="butt">
      <rect fill="none" x="375.2384" width="164" height="38.8" y="167.104" clip-path="url(#clipPath2)"/>
      <text x="387.4532" xml:space="preserve" y="183.6739" clip-path="url(#clipPath2)" font-family="sans-serif" stroke="none">Add and test formated </text>
      <text x="386.6036" xml:space="preserve" y="197.6427" clip-path="url(#clipPath2)" font-family="sans-serif" stroke="none">force field to HADDOCK</text>
    </g>
    <g fill="rgb(240,240,240)" text-rendering="geometricPrecision" shape-rendering="geometricPrecision" transform="matrix(1,0,0,1,-180,-83)" stroke="rgb(240,240,240)">
      <rect x="203.4984" width="122" height="38.8" y="164.4207" clip-path="url(#clipPath2)" stroke="none"/>
    </g>
    <g text-rendering="geometricPrecision" stroke-miterlimit="1.45" shape-rendering="geometricPrecision" transform="matrix(1,0,0,1,-180,-83)" stroke-linecap="butt">
      <rect fill="none" x="203.4984" width="122" height="38.8" y="164.4207" clip-path="url(#clipPath2)"/>
      <text x="213.0677" xml:space="preserve" y="180.9906" clip-path="url(#clipPath2)" font-family="sans-serif" stroke="none">Protein-DNA/RNA</text>
      <text x="241.8138" xml:space="preserve" y="194.9593" clip-path="url(#clipPath2)" font-family="sans-serif" stroke="none">dataset</text>
    </g>
    <g fill="rgb(240,240,240)" text-rendering="geometricPrecision" shape-rendering="geometricPrecision" transform="matrix(1,0,0,1,-180,-83)" stroke="rgb(240,240,240)">
      <rect x="398.2384" width="118" height="30" y="235.904" clip-path="url(#clipPath2)" stroke="none"/>
    </g>
    <g text-rendering="geometricPrecision" stroke-miterlimit="1.45" shape-rendering="geometricPrecision" transform="matrix(1,0,0,1,-180,-83)" stroke-linecap="butt">
      <rect fill="none" x="398.2384" width="118" height="30" y="235.904" clip-path="url(#clipPath2)"/>
      <text x="406.2882" xml:space="preserve" y="255.0583" clip-path="url(#clipPath2)" font-family="sans-serif" stroke="none">Run docking trial</text>
    </g>
    <g fill="rgb(240,240,240)" text-rendering="geometricPrecision" shape-rendering="geometricPrecision" transform="matrix(1,0,0,1,-180,-83)" stroke="rgb(240,240,240)">
      <rect x="363.3384" width="187.8" height="38.8" y="298.5873" clip-path="url(#clipPath2)" stroke="none"/>
    </g>
    <g text-rendering="geometricPrecision" stroke-miterlimit="1.45" shape-rendering="geometricPrecision" transform="matrix(1,0,0,1,-180,-83)" stroke-linecap="butt">
      <rect fill="none" x="363.3384" width="187.8" height="38.8" y="298.5873" clip-path="url(#clipPath2)"/>
      <text x="408.8898" xml:space="preserve" y="315.1573" clip-path="url(#clipPath2)" font-family="sans-serif" stroke="none">Evaluate results</text>
      <text x="375.6964" xml:space="preserve" y="329.126" clip-path="url(#clipPath2)" font-family="sans-serif" stroke="none">according to CAPRI metrics</text>
    </g>
    <g fill="rgb(240,240,240)" text-rendering="geometricPrecision" shape-rendering="geometricPrecision" transform="matrix(1,0,0,1,-180,-83)" stroke="rgb(240,240,240)">
      <rect x="370.7384" width="173" height="30" y="367.3873" clip-path="url(#clipPath2)" stroke="none"/>
    </g>
    <g text-rendering="geometricPrecision" stroke-miterlimit="1.45" shape-rendering="geometricPrecision" transform="matrix(1,0,0,1,-180,-83)" stroke-linecap="butt">
      <rect fill="none" x="370.7384" width="173" height="30" y="367.3873" clip-path="url(#clipPath2)"/>
      <text x="377.0441" xml:space="preserve" y="386.5416" clip-path="url(#clipPath2)" font-family="sans-serif" stroke="none">Optimize scoring functions</text>
    </g>
    <g fill="rgb(240,240,240)" text-rendering="geometricPrecision" shape-rendering="geometricPrecision" transform="matrix(1,0,0,1,-180,-83)" stroke="rgb(240,240,240)">
      <rect x="195.6584" width="137.68" height="30" y="237.5" clip-path="url(#clipPath2)" stroke="none"/>
    </g>
    <g text-rendering="geometricPrecision" stroke-miterlimit="1.45" shape-rendering="geometricPrecision" transform="matrix(1,0,0,1,-180,-83)" stroke-linecap="butt">
      <rect fill="none" x="195.6584" width="137.68" height="30" y="237.5" clip-path="url(#clipPath2)"/>
      <text x="201.5072" xml:space="preserve" y="256.6543" clip-path="url(#clipPath2)" font-family="sans-serif" stroke="none">Convert to CG model</text>
    </g>
    <g fill="rgb(240,240,240)" text-rendering="geometricPrecision" shape-rendering="geometricPrecision" transform="matrix(1,0,0,1,-180,-83)" stroke="rgb(240,240,240)">
      <rect x="343.7384" width="227" height="38.8" y="427.3873" clip-path="url(#clipPath2)" stroke="none"/>
    </g>
    <g text-rendering="geometricPrecision" stroke-miterlimit="1.45" shape-rendering="geometricPrecision" transform="matrix(1,0,0,1,-180,-83)" stroke-linecap="butt">
      <rect fill="none" x="343.7384" width="227" height="38.8" y="427.3873" clip-path="url(#clipPath2)"/>
      <text x="348.9279" xml:space="preserve" y="443.9572" clip-path="url(#clipPath2)" font-family="sans-serif" stroke="none">Implement the CG Protein-DNA/RNA</text>
      <text x="393.7198" xml:space="preserve" y="457.926" clip-path="url(#clipPath2)" font-family="sans-serif" stroke="none">docking in HADDOCK</text>
      <path fill="none" d="M432.2384 117.704 L477.4384 117.704" clip-path="url(#clipPath2)"/>
      <path d="M432.2384 122.704 L432.2384 112.704 Z" clip-path="url(#clipPath2)" stroke="none"/>
      <path fill="none" stroke-miterlimit="10" d="M432.2384 122.704 L432.2384 112.704 Z" clip-path="url(#clipPath2)" stroke-linecap="square"/>
      <path d="M477.4384 112.704 L477.4384 122.704 Z" clip-path="url(#clipPath2)" stroke="none"/>
      <path fill="none" stroke-miterlimit="10" d="M477.4384 112.704 L477.4384 122.704 Z" clip-path="url(#clipPath2)" stroke-linecap="square"/>
      <path fill="none" d="M430.2384 117.704 L457.2384 117.704 L457.2384 159.104" clip-path="url(#clipPath2)"/>
      <path d="M457.2384 167.104 L462.2384 155.104 L457.2384 158.104 L452.2384 155.104 Z" clip-path="url(#clipPath2)" stroke="none"/>
      <path fill="none" d="M457.2384 205.904 L457.2384 227.904" clip-path="url(#clipPath2)"/>
      <path d="M457.2384 235.904 L462.2384 223.904 L457.2384 226.904 L452.2384 223.904 Z" clip-path="url(#clipPath2)" stroke="none"/>
      <path fill="none" d="M457.2384 265.904 L457.2384 290.5873" clip-path="url(#clipPath2)"/>
      <path d="M457.2384 298.5873 L462.2384 286.5873 L457.2384 289.5873 L452.2384 286.5873 Z" clip-path="url(#clipPath2)" stroke="none"/>
      <path fill="none" d="M457.2384 337.3873 L457.2384 359.3873" clip-path="url(#clipPath2)"/>
      <path d="M457.2384 367.3873 L462.2384 355.3873 L457.2384 358.3873 L452.2384 355.3873 Z" clip-path="url(#clipPath2)" stroke="none"/>
      <path fill="none" d="M543.7384 382.3873 L595 382.3873 L595 317.9873 L559.1384 317.9873" clip-path="url(#clipPath2)"/>
      <path d="M551.1384 317.9873 L563.1384 322.9873 L560.1384 317.9873 L563.1384 312.9873 Z" clip-path="url(#clipPath2)" stroke="none"/>
      <path fill="none" d="M264.4984 203.2207 L264.4984 229.5" clip-path="url(#clipPath2)"/>
      <path d="M264.4984 237.5 L269.4984 225.5 L264.4984 228.5 L259.4984 225.5 Z" clip-path="url(#clipPath2)" stroke="none"/>
      <path fill="none" d="M333.3384 251.93 L390.2387 251.4588" clip-path="url(#clipPath2)"/>
      <path d="M398.2384 251.3925 L386.1974 246.4921 L389.2387 251.4671 L386.2802 256.4918 Z" clip-path="url(#clipPath2)" stroke="none"/>
      <path fill="none" d="M457.2384 397.3873 L457.2384 419.3873" clip-path="url(#clipPath2)"/>
      <path d="M457.2384 427.3873 L462.2384 415.3873 L457.2384 418.3873 L452.2384 415.3873 Z" clip-path="url(#clipPath2)" stroke="none"/>
    </g>
  </g>
</svg>
