<?xml version="1.0" encoding="UTF-8"?><svg xmlns="http://www.w3.org/2000/svg" xmlns:xlink="http://www.w3.org/1999/xlink" fill-opacity="1" color-rendering="auto" color-interpolation="auto" text-rendering="auto" stroke="black" stroke-linecap="square" width="338" stroke-miterlimit="10" shape-rendering="auto" stroke-opacity="1" fill="black" stroke-dasharray="none" font-weight="normal" stroke-width="1" height="348" font-family="'Dialog'" font-style="normal" stroke-linejoin="miter" font-size="12px" stroke-dashoffset="0" image-rendering="auto">
  <!--Generated by ySVG 2.5-->
  <defs id="genericDefs"/>
  <g>
    <defs id="defs1">
      <clipPath clipPathUnits="userSpaceOnUse" id="clipPath1">
        <path d="M0 0 L338 0 L338 348 L0 348 L0 0 Z"/>
      </clipPath>
      <clipPath clipPathUnits="userSpaceOnUse" id="clipPath2">
        <path d="M278 126 L616 126 L616 474 L278 474 L278 126 Z"/>
      </clipPath>
    </defs>
    <g fill="white" text-rendering="geometricPrecision" shape-rendering="geometricPrecision" transform="translate(-278,-126)" stroke="white">
      <rect x="278" width="338" height="348" y="126" clip-path="url(#clipPath2)" stroke="none"/>
    </g>
    <g fill="rgb(240,240,240)" text-rendering="geometricPrecision" shape-rendering="geometricPrecision" transform="matrix(1,0,0,1,-278,-126)" stroke="rgb(240,240,240)">
      <rect x="304.2768" width="151.6" height="38.8" y="141.808" clip-path="url(#clipPath2)" stroke="none"/>
    </g>
    <g text-rendering="geometricPrecision" stroke-miterlimit="1.45" shape-rendering="geometricPrecision" transform="matrix(1,0,0,1,-278,-126)" stroke-linecap="butt">
      <rect fill="none" x="304.2768" width="151.6" height="38.8" y="141.808" clip-path="url(#clipPath2)"/>
      <text x="315.1696" xml:space="preserve" y="165.3623" clip-path="url(#clipPath2)" font-family="sans-serif" stroke="none">Generated Structures</text>
    </g>
    <g fill="rgb(240,240,240)" text-rendering="geometricPrecision" shape-rendering="geometricPrecision" transform="matrix(1,0,0,1,-278,-126)" stroke="rgb(240,240,240)">
      <rect x="304.2768" width="151.6" height="38.8" y="216.008" clip-path="url(#clipPath2)" stroke="none"/>
    </g>
    <g text-rendering="geometricPrecision" stroke-miterlimit="1.45" shape-rendering="geometricPrecision" transform="matrix(1,0,0,1,-278,-126)" stroke-linecap="butt">
      <rect fill="none" x="304.2768" width="151.6" height="38.8" y="216.008" clip-path="url(#clipPath2)"/>
      <text x="328.7604" xml:space="preserve" y="239.5623" clip-path="url(#clipPath2)" font-family="sans-serif" stroke="none">CAPRI evaluation</text>
    </g>
    <g fill="rgb(240,240,240)" text-rendering="geometricPrecision" shape-rendering="geometricPrecision" transform="matrix(1,0,0,1,-278,-126)" stroke="rgb(240,240,240)">
      <rect x="304.2768" width="151.6" height="38.8" y="281.608" clip-path="url(#clipPath2)" stroke="none"/>
    </g>
    <g text-rendering="geometricPrecision" stroke-miterlimit="1.45" shape-rendering="geometricPrecision" transform="matrix(1,0,0,1,-278,-126)" stroke-linecap="butt">
      <rect fill="none" x="304.2768" width="151.6" height="38.8" y="281.608" clip-path="url(#clipPath2)"/>
      <text x="335.9528" xml:space="preserve" y="305.1623" clip-path="url(#clipPath2)" font-family="sans-serif" stroke="none">Adjust weights</text>
    </g>
    <g fill="rgb(240,240,240)" text-rendering="geometricPrecision" shape-rendering="geometricPrecision" transform="matrix(1,0,0,1,-278,-126)" stroke="rgb(240,240,240)">
      <path d="M485.8768 301.008 L543.3768 258.008 L600.8768 301.008 L543.3768 344.008 Z" fill-rule="evenodd" clip-path="url(#clipPath2)" stroke="none"/>
    </g>
    <g text-rendering="geometricPrecision" stroke-miterlimit="1.45" shape-rendering="geometricPrecision" transform="matrix(1,0,0,1,-278,-126)" stroke-linecap="butt">
      <path fill="none" d="M485.8768 301.008 L543.3768 258.008 L600.8768 301.008 L543.3768 344.008 Z" fill-rule="evenodd" clip-path="url(#clipPath2)"/>
      <text x="504.8807" xml:space="preserve" y="298.1779" clip-path="url(#clipPath2)" font-family="sans-serif" stroke="none">Repeat until </text>
      <text x="504.6024" xml:space="preserve" y="312.1467" clip-path="url(#clipPath2)" font-family="sans-serif" stroke="none">convergence</text>
    </g>
    <g fill="rgb(240,240,240)" text-rendering="geometricPrecision" shape-rendering="geometricPrecision" transform="matrix(1,0,0,1,-278,-126)" stroke="rgb(240,240,240)">
      <rect x="304.2768" width="151.6" height="38.8" y="350.408" clip-path="url(#clipPath2)" stroke="none"/>
    </g>
    <g text-rendering="geometricPrecision" stroke-miterlimit="1.45" shape-rendering="geometricPrecision" transform="matrix(1,0,0,1,-278,-126)" stroke-linecap="butt">
      <rect fill="none" x="304.2768" width="151.6" height="38.8" y="350.408" clip-path="url(#clipPath2)"/>
      <text x="363.1403" xml:space="preserve" y="373.9623" clip-path="url(#clipPath2)" font-family="sans-serif" stroke="none">Score</text>
    </g>
    <g fill="rgb(240,240,240)" text-rendering="geometricPrecision" shape-rendering="geometricPrecision" transform="matrix(1,0,0,1,-278,-126)" stroke="rgb(240,240,240)">
      <rect x="293.7768" width="172.6" height="38.8" y="419.208" clip-path="url(#clipPath2)" stroke="none"/>
    </g>
    <g text-rendering="geometricPrecision" stroke-miterlimit="1.45" stroke-dasharray="4,3,0,3" shape-rendering="geometricPrecision" transform="matrix(1,0,0,1,-278,-126)" stroke-linecap="round">
      <rect fill="none" x="293.7768" width="172.6" height="38.8" y="419.208" clip-path="url(#clipPath2)"/>
      <text stroke-linecap="butt" x="306.1725" y="442.7623" clip-path="url(#clipPath2)" font-family="sans-serif" stroke-dasharray="none" stroke="none" xml:space="preserve">Optimal scoring function</text>
      <path fill="none" stroke-dasharray="none" d="M380.0768 180.608 L380.0768 208.008" clip-path="url(#clipPath2)" stroke-linecap="butt"/>
      <path stroke-dasharray="none" d="M380.0768 216.008 L385.0768 204.008 L380.0768 207.008 L375.0768 204.008 Z" clip-path="url(#clipPath2)" stroke-linecap="butt" stroke="none"/>
      <path fill="none" stroke-dasharray="none" d="M380.0768 254.808 L380.0768 273.608" clip-path="url(#clipPath2)" stroke-linecap="butt"/>
      <path stroke-dasharray="none" d="M380.0768 281.608 L385.0768 269.608 L380.0768 272.608 L375.0768 269.608 Z" clip-path="url(#clipPath2)" stroke-linecap="butt" stroke="none"/>
      <path fill="none" stroke-dasharray="none" d="M543.3768 257.99 L543.3768 235.408 L463.8768 235.408" clip-path="url(#clipPath2)" stroke-linecap="butt"/>
      <path stroke-dasharray="none" d="M455.8768 235.408 L467.8768 240.408 L464.8768 235.408 L467.8768 230.408 Z" clip-path="url(#clipPath2)" stroke-linecap="butt" stroke="none"/>
      <path fill="none" stroke-dasharray="none" d="M380.0768 320.408 L380.0768 342.408" clip-path="url(#clipPath2)" stroke-linecap="butt"/>
      <path stroke-dasharray="none" d="M380.0768 350.408 L385.0768 338.408 L380.0768 341.408 L375.0768 338.408 Z" clip-path="url(#clipPath2)" stroke-linecap="butt" stroke="none"/>
      <path fill="none" stroke-dasharray="none" d="M455.8768 369.808 L519 369.808 L543.3768 369.808 L543.3768 351.9744" clip-path="url(#clipPath2)" stroke-linecap="butt"/>
      <path stroke-dasharray="none" d="M543.3768 343.9744 L538.3768 355.9744 L543.3768 352.9744 L548.3768 355.9744 Z" clip-path="url(#clipPath2)" stroke-linecap="butt" stroke="none"/>
      <path fill="none" stroke-dasharray="6,2" d="M380.0768 389.208 L380.0768 411.208" clip-path="url(#clipPath2)" stroke-linecap="butt"/>
      <path stroke-dasharray="6,2" d="M380.0768 419.208 L385.0768 407.208 L380.0768 410.208 L375.0768 407.208 Z" clip-path="url(#clipPath2)" stroke-linecap="butt" stroke="none"/>
    </g>
  </g>
</svg>
